<?xml version="1.0" encoding="UTF-8"?>
<svg width="128px" height="128px" viewBox="0 0 128 128" version="1.1" xmlns="http://www.w3.org/2000/svg" xmlns:xlink="http://www.w3.org/1999/xlink">
    <title>Logo/Symbol</title>
    <g id="Brandbook-[ENG]" stroke="none" stroke-width="1" fill="none" fill-rule="evenodd">
        <g id="Logo/Symbol" fill="#111111">
            <path d="M99.1909966,44.9286335 C101.572238,44.9286335 103.744618,45.2212437 105.749451,45.7640058 L105.749451,45.7640058 L127.99541,45.7640058 L127.99541,59.9664858 L123.683928,59.9664858 L118.989153,55.47636 L117.317119,55.47636 C117.317119,55.47636 120.266415,59.7071538 120.266415,66.5243902 C120.266415,78.4295954 113.144495,88.0788355 99.1909949,88.0788355 C94.0107908,88.0788355 90.200805,85.7276286 89.9334172,85.7815608 L89.9334172,85.7815608 L89.9169791,85.7985148 C89.7999784,85.923738 89.0979745,86.7524332 89.0979745,88.6089752 C89.0979745,91.529336 95.1893623,92.9155037 101.029428,92.9155037 C118.491101,92.9155037 128,94.8880387 128,108.797909 C128,118.363382 118.742422,128 101.029428,128 C82.2308191,128 74.0634483,119.407597 74.0634483,109.842123 C74.0634483,105.205117 76.3482928,100.727612 81.3035692,98.0826478 C81.3035692,98.0826478 77.4143996,96.024051 77.4143996,88.755852 C77.4143996,82.8577558 82.5314861,79.1984114 82.5314861,79.1984114 C79.6694058,76.9172014 78.0742617,71.6789118 78.0742617,66.5243885 C78.0742617,54.5778736 84.5696004,44.9286335 99.1909966,44.9286335 Z M101.029428,101.904939 L91.3965931,101.904939 C91.3965931,101.904939 89.5742256,104.015172 89.5202889,106.27458 C89.4571713,108.894299 90.5359017,113.797522 100.779256,113.797522 C108.339554,113.797522 112.538572,111.487625 112.538572,107.043398 C112.538572,103.826984 108.382014,101.904939 101.029428,101.904939 L101.029428,101.904939 Z M15.4568389,0 L15.4568389,30.9650091 L13.3682324,39.319881 L15.0391176,39.319881 C15.0391176,39.319881 19.2587926,30.0883271 29.7442872,30.0883288 C45.0335777,30.0883288 54.0157355,39.9051032 54.0157355,58.3682111 C54.0157355,77.4578491 44.8671781,86.6469464 29.5767388,86.6469464 C25.6496987,86.6469464 17.1277241,84.0283742 17.1277241,77.0895041 L17.1277241,77.0895041 L15.4568389,77.0895041 L12.7703392,85.8115724 L-1.33392556e-12,85.8115724 L-1.33392556e-12,0 L15.4568389,0 Z M71.1896286,5.46664241 C93.204922,5.46664241 102.521026,13.9465903 102.521026,30.4038867 C102.521026,32.6185421 102.019531,34.8733586 101.184089,37.0455557 C101.142776,37.0455557 101.142776,37.0880122 101.142776,37.0880122 C100.672695,38.2923673 100.078757,39.4398348 99.3772233,40.5177951 L99.1909966,40.5152117 C84.3425721,40.5152117 75.2389365,49.4405381 73.8473693,62.8360032 L64.2547643,70.7978164 L64.2547643,72.4261045 L74.2496164,72.4266415 C74.6466204,74.34595 75.2413871,76.1522693 76.0251473,77.7600364 L76.2659364,78.2363243 L76.6278621,78.8766737 L75.9557104,79.7787507 L75.3680113,80.6709612 C74.2414465,82.4955995 73.4661422,84.4864403 73.1541465,86.6276788 L46.1609639,86.628781 C54.0931727,81.4269257 58.4295286,71.7758078 58.4295286,58.3682111 C58.4295286,58.0905104 58.4275896,57.8143429 58.4237194,57.5397178 C58.9613009,57.0950103 59.5029843,56.6466478 60.0468982,56.1962319 L60.7305592,55.6299815 C61.3010941,55.1573362 61.8734746,54.682927 62.4462161,54.2079582 L63.1335843,53.6378039 L63.4772202,53.3526698 L65.7614374,51.4555655 C75.2379131,43.5783732 84.0174068,36.1924722 85.2269022,34.8733621 C86.6051526,33.3288402 87.0641871,31.656947 87.0641871,30.4038885 C87.0641871,24.1799039 82.9707473,19.6691224 71.1896269,19.6691224 C59.622252,19.6691224 55.899236,27.3074727 55.8179304,35.7175738 L55.816563,36.0013429 L52.2152568,36.0007346 C49.3840709,32.1455537 45.633364,29.3000315 41.0624901,27.5833623 C43.9029188,11.8920472 55.167944,5.46664241 71.1896286,5.46664241 Z M99.195588,57.878055 C94.1404704,57.878055 91.4046253,62.2637606 91.4046253,66.5243902 C91.4046253,70.7437102 94.1370277,75.2544918 98.8983636,75.2544918 C104.204803,75.2544918 106.981961,70.7437102 106.986551,66.5243902 C106.986551,62.2637606 104.208244,57.878055 99.195588,57.878055 Z M25.0655795,44.2735954 C18.0056286,44.2735954 15.4568389,50.2061166 15.4568389,54.174136 L15.4568389,54.174136 L15.4568389,69.1282221 C15.4568389,69.1282221 20.637043,72.4284017 24.9393443,72.4284017 C28.741298,72.4284017 38.5588983,70.210304 38.5588983,58.3682111 C38.5588983,46.4090737 30.2457835,44.2735954 25.0655795,44.2735954 Z" id="3"></path>
        </g>
    </g>
</svg>